<svg width="34" height="28" fill="none" xmlns="http://www.w3.org/2000/svg"><path d="M10.739 27.424c12.736 0 19.702-10.552 19.702-19.702 0-.3 0-.598-.02-.895a14.09 14.09 0 003.454-3.585c-1.264.56-2.604.928-3.977 1.09a6.949 6.949 0 003.044-3.83 13.877 13.877 0 01-4.397 1.68 6.93 6.93 0 00-11.8 6.316A19.659 19.659 0 012.474 1.263a6.93 6.93 0 002.144 9.244 6.873 6.873 0 01-3.143-.867v.088a6.927 6.927 0 005.555 6.788 6.913 6.913 0 01-3.126.118 6.932 6.932 0 006.469 4.81 13.894 13.894 0 01-10.248 2.87 19.603 19.603 0 0010.614 3.104" fill="#1DA1F2"/></svg>